<svg xmlns="http://www.w3.org/2000/svg" xmlns:xlink="http://www.w3.org/1999/xlink" width="500" height="45" preserveAspectRatio="xMidYMid meet" version="1.0" viewBox="0 0 375 33.75" zoomAndPan="magnify"><defs><clipPath id="fb3634ddeb"><path d="M 3 29 L 134 29 L 134 33.5 L 3 33.5 Z M 3 29" clip-rule="nonzero"/></clipPath></defs><path fill="#b249f8" fill-opacity="1" fill-rule="nonzero" d="M 369.550781 3.835938 L 56.59375 3.835938 C 56.335938 3.835938 56.09375 3.789062 55.859375 3.691406 C 55.625 3.59375 55.414062 3.453125 55.234375 3.273438 C 55.054688 3.09375 54.917969 2.886719 54.820312 2.652344 C 54.722656 2.417969 54.675781 2.171875 54.675781 1.917969 C 54.675781 1.664062 54.722656 1.417969 54.820312 1.183594 C 54.917969 0.949219 55.054688 0.742188 55.234375 0.5625 C 55.414062 0.382812 55.625 0.242188 55.859375 0.144531 C 56.09375 0.046875 56.335938 0 56.59375 0 L 369.550781 0 C 369.804688 0 370.050781 0.046875 370.285156 0.144531 C 370.519531 0.242188 370.726562 0.382812 370.90625 0.5625 C 371.085938 0.742188 371.226562 0.949219 371.324219 1.183594 C 371.421875 1.417969 371.46875 1.664062 371.46875 1.917969 C 371.46875 2.171875 371.421875 2.417969 371.324219 2.652344 C 371.226562 2.886719 371.085938 3.09375 370.90625 3.273438 C 370.726562 3.453125 370.519531 3.59375 370.285156 3.691406 C 370.050781 3.789062 369.804688 3.835938 369.550781 3.835938 Z M 369.550781 3.835938"/><g clip-path="url(#fb3634ddeb)"><path fill="#b249f8" fill-opacity="1" fill-rule="nonzero" d="M 131.648438 33.628906 L 5.414062 33.628906 C 5.160156 33.628906 4.914062 33.578125 4.679688 33.480469 C 4.445312 33.386719 4.238281 33.246094 4.058594 33.066406 C 3.878906 32.886719 3.738281 32.679688 3.640625 32.445312 C 3.542969 32.210938 3.496094 31.964844 3.496094 31.710938 C 3.496094 31.457031 3.542969 31.210938 3.640625 30.976562 C 3.738281 30.742188 3.878906 30.535156 4.058594 30.355469 C 4.238281 30.175781 4.445312 30.035156 4.679688 29.9375 C 4.914062 29.839844 5.160156 29.792969 5.414062 29.792969 L 131.648438 29.792969 C 131.902344 29.792969 132.148438 29.839844 132.382812 29.9375 C 132.617188 30.035156 132.824219 30.175781 133.003906 30.355469 C 133.183594 30.535156 133.324219 30.742188 133.421875 30.976562 C 133.519531 31.210938 133.566406 31.457031 133.566406 31.710938 C 133.566406 31.964844 133.519531 32.210938 133.421875 32.445312 C 133.324219 32.679688 133.183594 32.886719 133.003906 33.066406 C 132.824219 33.246094 132.617188 33.386719 132.382812 33.480469 C 132.148438 33.578125 131.902344 33.628906 131.648438 33.628906 Z M 131.648438 33.628906"/></g></svg>