<svg xmlns="http://www.w3.org/2000/svg" xmlns:xlink="http://www.w3.org/1999/xlink" width="172" zoomAndPan="magnify" viewBox="0 0 129 231" height="308" preserveAspectRatio="xMidYMid meet" version="1.0"><defs><clipPath id="a3af041ecd"><path d="M 3 102 L 70 102 L 70 230.25 L 3 230.25 Z M 3 102 " clip-rule="nonzero"/></clipPath><clipPath id="a83ffe590e"><path d="M 60 102 L 128 102 L 128 230.25 L 60 230.25 Z M 60 102 " clip-rule="nonzero"/></clipPath></defs><g clip-path="url(#a3af041ecd)"><path fill="#ee2727" d="M 39.234375 230.273438 L 26.5 205.71875 L 3.53125 221.203125 L 33.789062 102.742188 L 69.5 111.816406 L 39.234375 230.273438 " fill-opacity="1" fill-rule="nonzero"/></g><g clip-path="url(#a83ffe590e)"><path fill="#ee2727" d="M 127.050781 220.945312 L 103.964844 205.644531 L 91.414062 230.289062 L 60.242188 112.070312 L 95.878906 102.722656 L 127.050781 220.945312 " fill-opacity="1" fill-rule="nonzero"/></g><path fill="#af1c1b" d="M 6.347656 210.167969 L 4.816406 216.152344 L 27.785156 200.679688 L 40.527344 225.222656 L 42.058594 219.234375 L 29.3125 194.6875 L 6.347656 210.167969 " fill-opacity="1" fill-rule="nonzero"/><path fill="#af1c1b" d="M 8.648438 201.179688 L 7.117188 207.167969 L 30.082031 191.695312 L 42.820312 216.238281 L 44.347656 210.25 L 31.609375 185.699219 L 8.648438 201.179688 " fill-opacity="1" fill-rule="nonzero"/><path fill="#af1c1b" d="M 88.507812 219.273438 L 90.085938 225.25 L 102.636719 200.609375 L 125.71875 215.910156 L 124.140625 209.929688 L 101.0625 194.628906 L 88.507812 219.273438 " fill-opacity="1" fill-rule="nonzero"/><path fill="#af1c1b" d="M 86.148438 210.308594 L 87.722656 216.289062 L 100.273438 191.644531 L 123.359375 206.941406 L 121.777344 200.960938 L 98.695312 185.664062 L 86.148438 210.308594 " fill-opacity="1" fill-rule="nonzero"/><path fill="#f0b51d" d="M 128.964844 64.132812 C 128.964844 66.6875 125.398438 69.003906 125.097656 71.476562 C 124.789062 74.003906 127.707031 77.101562 127.113281 79.519531 C 126.503906 81.992188 122.480469 83.382812 121.585938 85.726562 C 120.6875 88.097656 122.765625 91.800781 121.59375 94.019531 C 120.417969 96.257812 116.171875 96.644531 114.742188 98.714844 C 113.296875 100.789062 114.429688 104.890625 112.753906 106.769531 C 111.082031 108.65625 106.859375 108.023438 104.96875 109.699219 C 103.085938 111.371094 103.210938 115.613281 101.125 117.054688 C 99.054688 118.484375 95.113281 116.871094 92.871094 118.046875 C 90.640625 119.214844 89.742188 123.367188 87.371094 124.269531 C 85.023438 125.15625 81.585938 122.640625 79.113281 123.25 C 76.679688 123.84375 74.804688 127.660156 72.273438 127.964844 C 69.789062 128.261719 67.0625 125 64.503906 125 C 61.9375 125 59.210938 128.261719 56.730469 127.964844 C 54.191406 127.660156 52.324219 123.84375 49.886719 123.25 C 47.414062 122.640625 43.980469 125.15625 41.636719 124.261719 C 39.261719 123.363281 38.363281 119.210938 36.132812 118.042969 C 33.886719 116.867188 29.953125 118.476562 27.878906 117.050781 C 25.792969 115.613281 25.917969 111.363281 24.027344 109.695312 C 22.136719 108.023438 17.925781 108.652344 16.246094 106.769531 C 14.570312 104.882812 15.707031 100.789062 14.265625 98.710938 C 12.832031 96.644531 8.585938 96.257812 7.410156 94.019531 C 6.234375 91.796875 8.320312 88.09375 7.417969 85.726562 C 6.527344 83.382812 2.503906 81.992188 1.894531 79.519531 C 1.296875 77.101562 4.210938 74.003906 3.90625 71.476562 C 3.609375 69.003906 0.0351562 66.6875 0.0351562 64.132812 C 0.0351562 61.578125 3.609375 59.265625 3.90625 56.792969 C 4.210938 54.265625 1.296875 51.171875 1.894531 48.746094 C 2.503906 46.277344 6.527344 44.882812 7.417969 42.542969 C 8.320312 40.175781 6.234375 36.46875 7.410156 34.246094 C 8.585938 32.007812 12.832031 31.625 14.265625 29.554688 C 15.707031 27.476562 14.570312 23.382812 16.25 21.5 C 17.925781 19.613281 22.140625 20.246094 24.03125 18.570312 C 25.917969 16.902344 25.800781 12.65625 27.878906 11.222656 C 29.953125 9.785156 33.886719 11.402344 36.132812 10.226562 C 38.363281 9.058594 39.261719 4.902344 41.636719 4.003906 C 43.984375 3.117188 47.414062 5.628906 49.886719 5.023438 C 52.324219 4.425781 54.191406 0.605469 56.730469 0.304688 C 59.210938 0.0117188 61.9375 3.265625 64.503906 3.265625 C 67.0625 3.265625 69.789062 0.0117188 72.273438 0.304688 C 74.804688 0.605469 76.679688 4.425781 79.117188 5.023438 C 81.585938 5.628906 85.023438 3.117188 87.371094 4.003906 C 89.75 4.902344 90.640625 9.058594 92.871094 10.226562 C 95.117188 11.402344 99.054688 9.785156 101.128906 11.222656 C 103.210938 12.65625 103.085938 16.902344 104.976562 18.574219 C 106.867188 20.25 111.082031 19.617188 112.757812 21.503906 C 114.4375 23.386719 113.300781 27.480469 114.742188 29.558594 C 116.179688 31.625 120.417969 32.015625 121.601562 34.253906 C 122.769531 36.46875 120.6875 40.175781 121.585938 42.542969 C 122.480469 44.882812 126.503906 46.277344 127.113281 48.746094 C 127.707031 51.171875 124.789062 54.265625 125.097656 56.792969 C 125.398438 59.265625 128.964844 61.578125 128.964844 64.132812 " fill-opacity="1" fill-rule="nonzero"/><path fill="#a46c29" d="M 64.503906 111.832031 C 38.085938 111.832031 16.675781 90.476562 16.675781 64.132812 C 16.675781 37.789062 38.085938 16.4375 64.503906 16.4375 C 90.917969 16.4375 112.332031 37.789062 112.332031 64.132812 C 112.332031 90.476562 90.917969 111.832031 64.503906 111.832031 Z M 64.503906 13.0625 C 36.222656 13.0625 13.292969 35.929688 13.292969 64.132812 C 13.292969 92.339844 36.222656 115.203125 64.503906 115.203125 C 92.78125 115.203125 115.710938 92.339844 115.710938 64.132812 C 115.710938 35.929688 92.78125 13.0625 64.503906 13.0625 " fill-opacity="1" fill-rule="nonzero"/><path fill="#351f17" d="M 39.640625 67.257812 L 36.683594 67.257812 L 36.179688 70.03125 L 39.140625 70.03125 Z M 47 70.03125 L 46.304688 73.941406 L 42.636719 73.941406 L 41.273438 81.433594 L 37.058594 81.433594 L 38.421875 73.941406 L 35.464844 73.941406 L 34.105469 81.433594 L 29.953125 81.433594 L 31.316406 73.941406 L 27.1875 73.941406 L 27.910156 70.03125 L 32.03125 70.03125 L 32.535156 67.257812 L 28.460938 67.257812 L 29.175781 63.363281 L 33.242188 63.363281 L 34.519531 56.367188 L 38.660156 56.367188 L 37.382812 63.363281 L 40.347656 63.363281 L 41.625 56.367188 L 45.835938 56.367188 L 44.5625 63.363281 L 48.140625 63.363281 L 47.441406 67.257812 L 43.855469 67.257812 L 43.347656 70.03125 L 47 70.03125 " fill-opacity="1" fill-rule="nonzero"/><path fill="#351f17" d="M 80.191406 79.703125 L 94.671875 79.703125 L 94.671875 93.335938 L 47.46875 93.335938 L 47.46875 79.703125 L 62.617188 79.703125 L 62.617188 50.605469 C 56.863281 53.144531 52.367188 54.640625 49.128906 55.089844 L 49.128906 41.328125 C 57.847656 39.441406 63.769531 36.0625 66.882812 31.191406 L 80.191406 31.191406 L 80.191406 79.703125 " fill-opacity="1" fill-rule="nonzero"/></svg>