<svg xmlns="http://www.w3.org/2000/svg" xmlns:xlink="http://www.w3.org/1999/xlink" width="500" zoomAndPan="magnify" viewBox="0 0 375 324.749988" height="433" preserveAspectRatio="xMidYMid meet" version="1.0"><defs><clipPath id="bca0d4791d"><path d="M 0.144531 0 L 374.855469 0 L 374.855469 324.5 L 0.144531 324.5 Z M 0.144531 0 " clip-rule="nonzero"/></clipPath><clipPath id="62ef62f913"><path d="M 0.144531 0 L 374.855469 0 L 374.855469 324.5 L 0.144531 324.5 Z M 0.144531 0 " clip-rule="nonzero"/></clipPath></defs><path fill="#b249f8" d="M 187.441406 192.96875 L 237.894531 280.347656 L 136.988281 280.347656 Z M 187.441406 196.339844 L 139.90625 278.671875 L 234.96875 278.671875 Z M 187.441406 196.339844 " fill-opacity="1" fill-rule="nonzero"/><path fill="#b249f8" d="M 187.441406 180.910156 L 246.445312 283.109375 L 128.4375 283.109375 Z M 187.441406 184.28125 L 131.351562 281.429688 L 243.53125 281.429688 Z M 187.441406 184.28125 " fill-opacity="1" fill-rule="nonzero"/><path fill="#b249f8" d="M 187.441406 168.855469 L 255 285.867188 L 119.882812 285.867188 Z M 187.441406 172.222656 L 122.789062 284.175781 L 252.09375 284.175781 Z M 187.441406 172.222656 " fill-opacity="1" fill-rule="nonzero"/><path fill="#b249f8" d="M 187.441406 156.789062 L 263.554688 288.617188 L 111.332031 288.617188 Z M 187.441406 160.160156 L 114.246094 286.9375 L 260.632812 286.9375 Z M 187.441406 160.160156 " fill-opacity="1" fill-rule="nonzero"/><path fill="#b249f8" d="M 187.441406 144.738281 L 272.105469 291.378906 L 102.78125 291.378906 Z M 187.441406 148.105469 L 105.695312 289.683594 L 269.1875 289.683594 Z M 187.441406 148.105469 " fill-opacity="1" fill-rule="nonzero"/><path fill="#b249f8" d="M 187.441406 132.679688 L 280.65625 294.132812 L 94.226562 294.132812 Z M 187.441406 136.046875 L 97.144531 292.449219 L 277.738281 292.449219 Z M 187.441406 136.046875 " fill-opacity="1" fill-rule="nonzero"/><path fill="#b249f8" d="M 187.441406 120.621094 L 289.207031 296.886719 L 85.675781 296.886719 Z M 187.441406 123.988281 L 88.589844 295.195312 L 286.292969 295.195312 Z M 187.441406 123.988281 " fill-opacity="1" fill-rule="nonzero"/><path fill="#b249f8" d="M 187.441406 108.5625 L 297.761719 299.644531 L 77.121094 299.644531 Z M 187.441406 111.933594 L 80.035156 297.960938 L 294.84375 297.960938 Z M 187.441406 111.933594 " fill-opacity="1" fill-rule="nonzero"/><path fill="#b249f8" d="M 187.441406 96.503906 L 306.316406 302.398438 L 68.566406 302.398438 Z M 187.441406 99.875 L 71.484375 300.714844 L 303.398438 300.714844 Z M 187.441406 99.875 " fill-opacity="1" fill-rule="nonzero"/><path fill="#b249f8" d="M 187.441406 84.445312 L 314.867188 305.152344 L 60.015625 305.152344 Z M 187.441406 87.816406 L 62.929688 303.46875 L 311.957031 303.46875 Z M 187.441406 87.816406 " fill-opacity="1" fill-rule="nonzero"/><path fill="#b249f8" d="M 187.441406 72.386719 L 323.417969 307.910156 L 51.464844 307.910156 Z M 187.441406 75.757812 L 54.378906 306.226562 L 320.503906 306.226562 Z M 187.441406 75.757812 " fill-opacity="1" fill-rule="nonzero"/><path fill="#b249f8" d="M 187.441406 60.332031 L 331.972656 310.664062 L 42.910156 310.664062 Z M 187.441406 63.699219 L 45.828125 308.980469 L 329.054688 308.980469 Z M 187.441406 63.699219 " fill-opacity="1" fill-rule="nonzero"/><path fill="#b249f8" d="M 187.441406 48.273438 L 340.527344 313.421875 L 34.355469 313.421875 Z M 187.441406 51.640625 L 37.273438 311.734375 L 337.609375 311.734375 Z M 187.441406 51.640625 " fill-opacity="1" fill-rule="nonzero"/><path fill="#b249f8" d="M 187.441406 36.214844 L 349.070312 316.175781 L 25.8125 316.175781 Z M 187.441406 39.582031 L 28.722656 314.492188 L 346.160156 314.492188 Z M 187.441406 39.582031 " fill-opacity="1" fill-rule="nonzero"/><path fill="#b249f8" d="M 187.441406 24.15625 L 357.628906 318.929688 L 17.253906 318.929688 Z M 187.441406 27.523438 L 20.167969 317.257812 L 354.714844 317.257812 Z M 187.441406 27.523438 " fill-opacity="1" fill-rule="nonzero"/><path fill="#b249f8" d="M 187.441406 12.097656 L 366.183594 321.6875 L 8.699219 321.6875 Z M 187.441406 15.46875 L 11.617188 320.003906 L 363.265625 320.003906 Z M 187.441406 15.46875 " fill-opacity="1" fill-rule="nonzero"/><g clip-path="url(#bca0d4791d)"><path fill="#b249f8" d="M 187.441406 0.0390625 L 374.734375 324.445312 L 0.148438 324.445312 Z M 187.441406 3.410156 L 3.066406 322.761719 L 371.816406 322.761719 Z M 187.441406 3.410156 " fill-opacity="1" fill-rule="nonzero"/></g><path fill="#b249f8" d="M 187.441406 192.96875 L 237.894531 280.347656 L 136.988281 280.347656 Z M 187.441406 196.339844 L 139.90625 278.671875 L 234.96875 278.671875 Z M 187.441406 196.339844 " fill-opacity="1" fill-rule="nonzero"/><path fill="#b249f8" d="M 187.441406 180.910156 L 246.445312 283.109375 L 128.4375 283.109375 Z M 187.441406 184.28125 L 131.351562 281.429688 L 243.53125 281.429688 Z M 187.441406 184.28125 " fill-opacity="1" fill-rule="nonzero"/><path fill="#b249f8" d="M 187.441406 168.855469 L 255 285.867188 L 119.882812 285.867188 Z M 187.441406 172.222656 L 122.789062 284.175781 L 252.09375 284.175781 Z M 187.441406 172.222656 " fill-opacity="1" fill-rule="nonzero"/><path fill="#b249f8" d="M 187.441406 156.789062 L 263.554688 288.617188 L 111.332031 288.617188 Z M 187.441406 160.160156 L 114.246094 286.9375 L 260.632812 286.9375 Z M 187.441406 160.160156 " fill-opacity="1" fill-rule="nonzero"/><path fill="#b249f8" d="M 187.441406 144.738281 L 272.105469 291.378906 L 102.78125 291.378906 Z M 187.441406 148.105469 L 105.695312 289.683594 L 269.1875 289.683594 Z M 187.441406 148.105469 " fill-opacity="1" fill-rule="nonzero"/><path fill="#b249f8" d="M 187.441406 132.679688 L 280.65625 294.132812 L 94.226562 294.132812 Z M 187.441406 136.046875 L 97.144531 292.449219 L 277.738281 292.449219 Z M 187.441406 136.046875 " fill-opacity="1" fill-rule="nonzero"/><path fill="#b249f8" d="M 187.441406 120.621094 L 289.207031 296.886719 L 85.675781 296.886719 Z M 187.441406 123.988281 L 88.589844 295.195312 L 286.292969 295.195312 Z M 187.441406 123.988281 " fill-opacity="1" fill-rule="nonzero"/><path fill="#b249f8" d="M 187.441406 108.5625 L 297.761719 299.644531 L 77.121094 299.644531 Z M 187.441406 111.933594 L 80.035156 297.960938 L 294.84375 297.960938 Z M 187.441406 111.933594 " fill-opacity="1" fill-rule="nonzero"/><path fill="#b249f8" d="M 187.441406 96.503906 L 306.316406 302.398438 L 68.566406 302.398438 Z M 187.441406 99.875 L 71.484375 300.714844 L 303.398438 300.714844 Z M 187.441406 99.875 " fill-opacity="1" fill-rule="nonzero"/><path fill="#b249f8" d="M 187.441406 84.445312 L 314.867188 305.152344 L 60.015625 305.152344 Z M 187.441406 87.816406 L 62.929688 303.46875 L 311.957031 303.46875 Z M 187.441406 87.816406 " fill-opacity="1" fill-rule="nonzero"/><path fill="#b249f8" d="M 187.441406 72.386719 L 323.417969 307.910156 L 51.464844 307.910156 Z M 187.441406 75.757812 L 54.378906 306.226562 L 320.503906 306.226562 Z M 187.441406 75.757812 " fill-opacity="1" fill-rule="nonzero"/><path fill="#b249f8" d="M 187.441406 60.332031 L 331.972656 310.664062 L 42.910156 310.664062 Z M 187.441406 63.699219 L 45.828125 308.980469 L 329.054688 308.980469 Z M 187.441406 63.699219 " fill-opacity="1" fill-rule="nonzero"/><path fill="#b249f8" d="M 187.441406 48.273438 L 340.527344 313.421875 L 34.355469 313.421875 Z M 187.441406 51.640625 L 37.273438 311.734375 L 337.609375 311.734375 Z M 187.441406 51.640625 " fill-opacity="1" fill-rule="nonzero"/><path fill="#b249f8" d="M 187.441406 36.214844 L 349.070312 316.175781 L 25.8125 316.175781 Z M 187.441406 39.582031 L 28.722656 314.492188 L 346.160156 314.492188 Z M 187.441406 39.582031 " fill-opacity="1" fill-rule="nonzero"/><path fill="#b249f8" d="M 187.441406 24.15625 L 357.628906 318.929688 L 17.253906 318.929688 Z M 187.441406 27.523438 L 20.167969 317.257812 L 354.714844 317.257812 Z M 187.441406 27.523438 " fill-opacity="1" fill-rule="nonzero"/><path fill="#b249f8" d="M 187.441406 12.097656 L 366.183594 321.6875 L 8.699219 321.6875 Z M 187.441406 15.46875 L 11.617188 320.003906 L 363.265625 320.003906 Z M 187.441406 15.46875 " fill-opacity="1" fill-rule="nonzero"/><g clip-path="url(#62ef62f913)"><path fill="#b249f8" d="M 187.441406 0.0390625 L 374.734375 324.445312 L 0.148438 324.445312 Z M 187.441406 3.410156 L 3.066406 322.761719 L 371.816406 322.761719 Z M 187.441406 3.410156 " fill-opacity="1" fill-rule="nonzero"/></g></svg>